<?xml version="1.0" standalone="no"?>
<!DOCTYPE svg PUBLIC "-//W3C//DTD SVG 20010904//EN"
 "http://www.w3.org/TR/2001/REC-SVG-20010904/DTD/svg10.dtd">
<svg version="1.0" xmlns="http://www.w3.org/2000/svg"
 width="512.000000pt" height="512.000000pt" viewBox="0 0 512.000000 512.000000"
 preserveAspectRatio="xMidYMid meet">

<g transform="translate(0.000000,512.000000) scale(0.100000,-0.100000)"
fill="#000000" stroke="none">
<path d="M851 4750 c-46 -11 -83 -40 -103 -81 -17 -31 -18 -81 -18 -599 0
-518 1 -568 18 -600 52 -104 206 -109 267 -8 19 32 20 53 23 511 l3 477 1884
0 1885 0 0 -1890 0 -1890 -1885 0 -1884 0 -3 477 c-3 458 -4 479 -23 511 -61
101 -215 96 -268 -8 -16 -32 -17 -78 -15 -612 3 -568 3 -577 24 -605 12 -15
36 -37 55 -48 34 -20 52 -20 2114 -20 1955 0 2082 1 2112 17 17 10 42 32 55
50 l23 33 0 2095 0 2095 -23 33 c-13 18 -38 40 -55 50 -30 16 -157 17 -2092
19 -1133 0 -2075 -3 -2094 -7z"/>
<path d="M2360 3671 c-20 -10 -44 -36 -57 -61 -23 -43 -23 -45 -23 -472 l0
-428 -1087 0 c-1062 0 -1089 -1 -1120 -20 -38 -23 -73 -86 -73 -132 0 -45 30
-98 70 -125 l33 -23 1088 0 1089 0 0 -427 c0 -396 2 -431 19 -469 34 -75 127
-106 205 -69 17 8 260 244 538 523 557 558 545 544 519 635 -11 36 -82 111
-519 549 -278 279 -521 515 -538 523 -43 20 -102 19 -144 -4z m532 -1413
l-302 -303 0 605 0 605 302 -303 303 -302 -303 -302z"/>
</g>
</svg>
