<?xml version="1.0" standalone="yes"?>
<svg xmlns="http://www.w3.org/2000/svg" width="1920" height="1080">
<path style="fill:#030a14; stroke:none;" d="M0 0L0 1080L1920 1080L1920 0L0 0z"/>
<path style="fill:#2393d8; stroke:none;" d="M767 146L768 147L767 146M769 146L770 147L769 146M771 146L772 147L771 146M773 146C776.959 147.661 781.737 147 786 147C782.041 145.339 777.263 146 773 146M795 146L796 147L795 146M797 146L798 147L797 146M799 146L800 147L799 146M801 146L802 147L801 146M803 146L804 147L803 146M805 146L806 147L805 146M807 146L808 147L807 146M809 146L810 147L809 146M825 146L826 147L825 146M827 146L828 147L827 146M829 146L830 147L829 146M831 146L832 147L831 146M833 146L834 147L833 146M835 146L836 147L835 146M837 146L838 147L837 146M839 146L840 147L839 146M855 146L856 147L855 146M857 146L858 147L857 146M859 146L860 147L859 146M861 146L862 147L861 146M863 146L864 147L863 146M865 146L866 147L865 146M867 146L868 147L867 146M869 146L870 147L869 146M885 146L886 147L885 146M887 146L888 147L887 146M889 146L890 147L889 146M891 146L892 147L891 146M893 146L894 147L893 146M895 146L896 147L895 146M897 146L898 147L897 146M899 146L900 147L899 146M915 146L916 147L915 146M917 146L918 147L917 146M919 146L920 147L919 146M921 146L922 147L921 146M923 146L924 147L923 146M925 146L926 147L925 146M927 146L928 147L927 146M929 146L930 147L929 146M945 146L946 147L945 146M947 146L948 147L947 146M949 146L950 147L949 146M951 146L952 147L951 146M953 146L954 147L953 146M955 146L956 147L955 146M957 146L958 147L957 146M959 146L960 147L959 146M975 146L976 147L975 146M977 146L978 147L977 146M979 146L980 147L979 146M981 146L982 147L981 146M983 146L984 147L983 146M985 146L986 147L985 146M987 146L988 147L987 146M989 146L990 147L989 146M1005 146L1006 147L1005 146M1007 146L1008 147L1007 146M1009 146L1010 147L1009 146M1011 146L1012 147L1011 146M1013 146L1014 147L1013 146M1015 146L1016 147L1015 146M1017 146L1018 147L1017 146M1019 146L1020 147L1019 146M1035 146L1036 147L1035 146M1037 146L1038 147L1037 146M1039 146L1040 147L1039 146M1041 146L1042 147L1041 146M1043 146L1044 147L1043 146M1045 146L1046 147L1045 146M1047 146L1048 147L1047 146M1049 146L1050 147L1049 146M1064 146L1065 147L1064 146M1066 146L1067 147L1066 146M1068 146L1069 147L1068 146M1070 146L1071 147L1070 146M1072 146L1073 147L1072 146M1074 146L1075 147L1074 146M1076 146L1077 147L1076 146M1078 146L1079 147L1078 146M1095 146L1096 147L1095 146M1097 146L1098 147L1097 146M1099 146L1100 147L1099 146M1101 146L1102 147L1101 146M1103 146L1104 147L1103 146M1105 146L1106 147L1105 146M1107 146L1108 147L1107 146M1109 146L1110 147L1109 146M1125 146L1126 147L1125 146M1127 146L1128 147L1127 146M1129 146L1130 147L1129 146M1131 146L1132 147L1131 146M1133 146C1137.47 147.876 1143.18 147 1148 147C1143.53 145.124 1137.82 146 1133 146M1149 146L1150 147L1149 146M1151.67 146.333C1151.22 146.777 1152.28 146.722 1152.33 146.667C1152.78 146.222 1151.72 146.278 1151.67 146.333M743 147C744.769 147.779 746.036 147.912 748 148C746.231 147.221 744.964 147.088 743 147M1172 147C1174.05 147.874 1175.75 147.953 1178 148C1175.95 147.126 1174.25 147.047 1172 147M730 148C731.769 148.779 733.036 148.912 735 149C733.231 148.221 731.964 148.088 730 148M1185 148C1186.51 148.683 1187.31 148.826 1189 149C1187.49 148.317 1186.69 148.174 1185 148M721 149C722.506 149.683 723.315 149.826 725 150C723.494 149.317 722.685 149.174 721 149M749 149.62C719.489 152.034 691.32 154.757 664 167.309C651.695 172.962 640.317 180.885 630 189.59C619.797 198.2 610.447 208.29 602.478 219C567.976 265.369 569 323.929 569 379L569 625C569 665.27 567.666 705.826 569.921 746.015C572.23 787.159 577.35 826.943 602.895 861C611.382 872.315 621.15 882.498 632.001 891.565C678.974 930.814 740.945 931 799 931L1045 931C1093.91 931 1143.82 933.602 1192.51 928.525C1211.8 926.514 1231.09 922.943 1249 915.28C1263.23 909.188 1276.51 901.37 1288.29 891.252C1304.26 877.525 1318.61 861.598 1328.69 843C1356.34 792.001 1351 729.039 1351 673L1351 543L1351 432C1351 398.094 1352.4 363.793 1350.09 330C1347.37 290.274 1342.29 253.264 1318.25 220C1310.95 209.892 1302.29 200.481 1293 192.174C1246.96 151.01 1187.49 149 1129 149L880 149L798 149C781.709 149 765.242 148.292 749 149.62M1195 149C1196.51 149.683 1197.31 149.826 1199 150C1197.49 149.317 1196.69 149.174 1195 149M713 150C714.506 150.683 715.315 150.826 717 151C715.494 150.317 714.685 150.174 713 150M1203 150C1204.25 150.685 1204.55 150.749 1206 151C1204.75 150.315 1204.45 150.251 1203 150M707 151C708.506 151.683 709.315 151.826 711 152C709.494 151.317 708.685 151.174 707 151M1210 151C1211.25 151.685 1211.55 151.749 1213 152C1211.75 151.315 1211.45 151.251 1210 151M702 152C703.248 152.685 703.548 152.749 705 153C703.752 152.315 703.452 152.251 702 152M1215 152C1216.25 152.685 1216.55 152.749 1218 153C1216.75 152.315 1216.45 152.251 1215 152M697.667 153.333C697.222 153.778 698.278 153.722 698.333 153.667C698.778 153.222 697.722 153.278 697.667 153.333M1221.67 153.333C1221.22 153.777 1222.28 153.723 1222.33 153.667C1222.78 153.222 1221.72 153.278 1221.67 153.333M694 154L695 155L694 154M1225.67 154.333C1225.22 154.777 1226.28 154.722 1226.33 154.667C1226.78 154.222 1225.72 154.278 1225.67 154.333M689.667 155.333C689.222 155.778 690.278 155.722 690.333 155.667C690.778 155.222 689.722 155.278 689.667 155.333M1229 155L1230 156L1229 155M686 156L687 157L686 156M1232.67 156.333C1232.22 156.777 1233.28 156.723 1233.33 156.667C1233.78 156.222 1232.72 156.278 1232.67 156.333M683 157L684 158L683 157M1236 157L1237 158L1236 157M680 158L681 159L680 158M1238.67 158.333C1238.22 158.777 1239.28 158.722 1239.33 158.667C1239.78 158.222 1238.72 158.278 1238.67 158.333M677 159L678 160L677 159M1241.67 159.333C1241.22 159.778 1242.28 159.722 1242.33 159.667C1242.78 159.222 1241.72 159.278 1241.67 159.333M674 160L675 161L674 160M1244.67 160.333C1244.22 160.778 1245.28 160.722 1245.33 160.667C1245.78 160.222 1244.72 160.278 1244.67 160.333M672 161L673 162L672 161M1247 161L1248 162L1247 161M669 162L670 163L669 162M1250 162L1251 163L1250 162M667 163L668 164L667 163M1252 163L1253 164L1252 163M665 164L666 165L665 164M1254 164L1255 165L1254 164M663 165L664 166L663 165M1256 165L1257 166L1256 165M659 168L662 167C660.234 166.599 660.443 166.711 659 168M1258 166L1259 167L1258 166M1260 167L1261 168L1260 167M657 168L658 169L657 168M1262 168L1263 169L1262 168M655 169L656 170L655 169M1264 169L1265 170L1264 169M653 170L654 171L653 170M1266 170L1267 171L1266 170M650 172L651 173L650 172M1269 172L1270 173L1269 172M648 173L649 174L648 173M1271 173L1272 174L1271 173M1273 174C1273.55 175.635 1273.36 175.455 1275 176C1274.45 174.365 1274.64 174.545 1273 174M645 175L646 176L645 175M643 176L642 178C643.263 177.029 643.392 177.306 643 176M1277 177L1278 178L1277 177M639 179L638 181C639.263 180.029 639.392 180.306 639 179M1280 179C1280.55 180.635 1280.36 180.455 1282 181C1281.45 179.365 1281.64 179.545 1280 179M635 182L634 184C635.263 183.029 635.392 183.306 635 182M1284 182C1284.55 183.635 1284.36 183.455 1286 184C1285.45 182.365 1285.64 182.545 1284 182M630 186C628.814 187.186 628.472 187.584 628 189C629.548 187.738 629.808 187.806 630 186M1289 186C1290.33 187.753 1291.25 188.67 1293 190C1291.67 188.247 1290.75 187.33 1289 186M623 192C619.147 195.853 615.142 199.54 612 204C616.057 201.142 621.799 196.955 623 192M1296 192C1299.04 196.31 1302.69 199.964 1307 203C1303.96 198.69 1300.31 195.036 1296 192M1310 207C1311.55 209.136 1312.86 210.451 1315 212C1313.45 209.864 1312.14 208.549 1310 207M608 208C606.814 209.186 606.472 209.584 606 211C607.548 209.738 607.808 209.806 608 208M603 214L602 216C603.263 215.029 603.392 215.306 603 214M1316 214C1316.55 215.635 1316.36 215.455 1318 216C1317.45 214.365 1317.64 214.545 1316 214M600 218L599 220C600.263 219.029 600.392 219.306 600 218M1319 218C1319.55 219.635 1319.36 219.455 1321 220C1320.45 218.365 1320.64 218.545 1319 218M597 222L598 223L597 222M1322 222L1323 223L1322 222M595 225L596 226L595 225M1324 225C1324.55 226.635 1324.36 226.455 1326 227C1325.45 225.365 1325.64 225.545 1324 225M594 227L593 229C594.263 228.029 594.392 228.306 594 227M1326 228L1327 229L1326 228M592 230L593 231L592 230M1327 230C1327.55 231.635 1327.36 231.455 1329 232C1328.45 230.365 1328.64 230.545 1327 230M1329 233L1330 234L1329 233M589 235L590 236L589 235M1330 235L1331 236L1330 235M588 237L589 238L588 237M1332.33 238.667C1332.28 238.723 1332.22 239.777 1332.67 239.333C1332.72 239.278 1332.78 238.222 1332.33 238.667M587 239C586.014 240.479 586 240.203 586 242C587.082 240.616 587.191 240.662 587 239M1333 241L1334 242L1333 241M585 243L586 244L585 243M1334 243L1335 244L1334 243M584 245L585 246L584 245M1335 245L1336 246L1335 245M583 247L584 248L583 247M1336 247L1337 248L1336 247M582 249L583 250L582 249M1337 249L1338 250L1337 249M581 252L582 253L581 252M580 254L581 255L580 254M1339 254L1340 255L1339 254M579 257L580 258L579 257M1340 257L1341 258L1340 257M578 260L579 261L578 260M1341 260L1342 261L1341 260M577 263L578 264L577 263M1342 263L1343 264L1342 263M576 266L577 267L576 266M1343 266L1344 267L1343 266M575 270L576 271L575 270M1344 270L1345 271L1344 270M574.333 273.667C574.278 273.722 574.222 274.778 574.667 274.333C574.722 274.278 574.778 273.222 574.333 273.667M1345 273L1346 274L1345 273M573.333 277.667C573.278 277.722 573.222 278.778 573.667 278.333C573.722 278.278 573.778 277.222 573.333 277.667M1346.33 277.667C1346.28 277.723 1346.22 278.777 1346.67 278.333C1346.72 278.278 1346.78 277.222 1346.33 277.667M1347 281L1347 285C1347.71 283.24 1347.71 282.76 1347 281M572 282L572 285C572.696 283.446 572.696 283.554 572 282M571 287L571 291C571.71 289.24 571.71 288.759 571 287M1348 287L1348 291C1348.71 289.24 1348.71 288.76 1348 287M570 293L570 297C570.71 295.241 570.71 294.759 570 293M1349 294L1349 297C1349.7 295.447 1349.7 295.554 1349 294M569 301L569 304C569.696 302.446 569.696 302.554 569 301M1350 301L1350 304C1350.7 302.446 1350.7 302.554 1350 301M568 309L568 314C568.83 311.97 568.83 311.03 568 309M1351 310L1351 314C1351.71 312.24 1351.71 311.76 1351 310M1352 321L1352 327C1352.95 324.715 1352.95 323.285 1352 321M567 322L568 323L567 322M567 324L567 328C567.71 326.24 567.71 325.76 567 324M1208 335C1204.04 351.681 1192.9 366.15 1181 377.999C1175.71 383.27 1169.95 389.057 1163 392C1168.76 392.971 1175.34 391.225 1181 389.87C1189.74 387.776 1198.48 385.487 1207 382.645C1212.37 380.854 1217.42 377.992 1223 377C1214.1 391.424 1202.37 404.39 1190 415.911C1184.28 421.235 1173.81 426.74 1170.52 433.949C1167.53 440.508 1169.09 451.963 1168.99 458.996C1168.81 471.545 1167 484.632 1164.92 497C1157.89 538.707 1143.25 579.366 1120.31 615C1100.57 645.654 1076.02 673.184 1047 695.346C976.462 749.219 881.032 766.578 795 747.576C760.834 740.029 728.147 725.596 698 708C704.716 705.182 714.841 707.345 722.116 707.235C737.042 707.011 752.382 705.503 767 702.338C787.886 697.816 808.313 690.564 827 680.138C836.685 674.734 845.14 666.911 855 662C841.487 657.727 827.442 657.231 814 651.793C786.346 640.606 764.535 615.003 755 587C769.846 587 785.479 588.578 800 585C786.536 577.83 772.573 573.343 760 564.255C732.26 544.202 717.094 510.974 717 477C733.052 481.589 746.941 488.654 764 490C749.672 476.803 736.629 463.652 727.809 446C712.492 415.348 714.831 375.421 732 346C750.305 361.834 765.682 380.457 785 395.349C821.069 423.154 861.624 441.623 906 451.424C921.937 454.945 938.651 457.865 955 458C952.468 437.984 951.813 418.455 958.356 399C975.227 348.829 1026.1 318.756 1078 326.427C1094 328.793 1108.7 335.301 1122 344.344C1126.52 347.414 1130.82 350.771 1135 354.281C1137.4 356.295 1139.67 358.71 1143 358.794C1147.84 358.916 1153.4 356.451 1158 355.14C1169.66 351.82 1180.94 347.069 1192 342.139C1197.35 339.756 1202.36 336.626 1208 335M566 344L567 345L566 344M1353 344L1353 366C1355.22 360.713 1355.22 349.287 1353 344M566 346L567 347L566 346M566 348L566 368C568.087 363.027 568.087 352.973 566 348M1353 367L1354 368L1353 367M566.333 369.667C566.278 369.722 566.222 370.778 566.667 370.333C566.722 370.278 566.778 369.222 566.333 369.667M1353 369L1354 370L1353 369M1353 371L1354 372L1353 371M566 710L567 711L566 710M566 716L567 717L566 716M1353 716L1354 717L1353 716M566 718L567 719L566 718M1353 719L1354 720L1353 719M566 720L566 735C567.74 730.852 567.74 724.148 566 720M1353 721L1353 734C1354.59 730.209 1354.59 724.791 1353 721M1353.33 735.667C1353.28 735.722 1353.22 736.778 1353.67 736.333C1353.72 736.278 1353.78 735.222 1353.33 735.667M566 736L567 737L566 736M567 753L567 758C567.83 755.97 567.83 755.03 567 753M1352 753L1352 757C1352.71 755.241 1352.71 754.759 1352 753M567 759L568 760L567 759M568 767L568 770C568.696 768.446 568.696 768.554 568 767M1351 767L1351 770C1351.7 768.446 1351.7 768.554 1351 767M569 776L569 779C569.696 777.446 569.696 777.554 569 776M1350.33 777.667C1350.28 777.722 1350.22 778.778 1350.67 778.333C1350.72 778.278 1350.78 777.222 1350.33 777.667M570.333 784.667C570.278 784.722 570.222 785.778 570.667 785.333C570.722 785.278 570.778 784.222 570.333 784.667M1349 784L1349 787C1349.7 785.446 1349.7 785.554 1349 784M571 790L571 793C571.696 791.446 571.696 791.554 571 790M1348.33 791.667C1348.28 791.722 1348.22 792.778 1348.67 792.333C1348.72 792.278 1348.78 791.222 1348.33 791.667M1347.33 796.667C1347.28 796.722 1347.22 797.778 1347.67 797.333C1347.72 797.278 1347.78 796.222 1347.33 796.667M572.333 797.667C572.278 797.722 572.222 798.778 572.667 798.333C572.722 798.278 572.778 797.222 572.333 797.667M1346.33 801.667C1346.28 801.722 1346.22 802.778 1346.67 802.333C1346.72 802.278 1346.78 801.222 1346.33 801.667M573 802L574 803L573 802M574 806L575 807L574 806M1345 806L1346 807L1345 806M575 809L576 810L575 809M1344.33 809.667C1344.28 809.722 1344.22 810.778 1344.67 810.333C1344.72 810.277 1344.78 809.223 1344.33 809.667M576 813L577 814L576 813M1343 813L1344 814L1343 813M577 816L578 817L577 816M1342 816L1343 817L1342 816M578 819L579 820L578 819M1341.33 819.667C1341.28 819.722 1341.22 820.778 1341.67 820.333C1341.72 820.277 1341.78 819.223 1341.33 819.667M579 822L580 823L579 822M1340 822L1341 823L1340 822M580 825L581 826L580 825M1339 825L1340 826L1339 825M581 828L582 829L581 828M582 830L583 831L582 830M1337 830L1338 831L1337 830M583 832L584 833L583 832M1336 832L1337 833L1336 832M1335 834L1336 835L1335 834M1333 839L1334 840L1333 839M587 841L588 842L587 841z"/>
<path style="fill:#030a14; stroke:none;" d="M711 842L712 843L711 842M1161 842L1162 843L1161 842z"/>
<path style="fill:#2393d8; stroke:none;" d="M590 846L591 847L590 846z"/>
<path style="fill:#030a14; stroke:none;" d="M867 846L868 847L867 846M1317 846L1318 847L1317 846z"/>
<path style="fill:#2393d8; stroke:none;" d="M1329 846L1330 847L1329 846z"/>
<path style="fill:#030a14; stroke:none;" d="M1000 847L1001 848L1000 847z"/>
<path style="fill:#2393d8; stroke:none;" d="M591 848L592 849L591 848z"/>
<path style="fill:#030a14; stroke:none;" d="M724 848L725 849L724 848M757 848L758 849L757 848M761 848L762 849L761 848M859 848L860 849L859 848M1174 848L1175 849L1174 848M1207 848L1208 849L1207 848M1211 848L1212 849L1211 848M1309 848L1310 849L1309 848z"/>
<path style="fill:#2393d8; stroke:none;" d="M1328 848L1329 849L1328 848z"/>
<path style="fill:#030a14; stroke:none;" d="M686 849L687 850L686 849M735 849L736 850L735 849M832 849L833 850L832 849M880 849L881 850L880 849M958 849L959 850L958 849M983 849L984 850L983 849M1136 849L1137 850L1136 849M1185 849L1186 850L1185 849M1282 849L1283 850L1282 849M654 850L655 851L654 850M660 850L661 851L660 850M692 850L693 851L692 850M922 850L923 851L922 850M1049 850L1050 851L1049 850M1104 850L1105 851L1104 850M1110 850L1111 851L1110 850M1142 850L1143 851L1142 850z"/>
<path style="fill:#2393d8; stroke:none;" d="M593 851L594 852L593 851z"/>
<path style="fill:#030a14; stroke:none;" d="M897 851L898 852L897 851M1038 851L1039 852L1038 851z"/>
<path style="fill:#2393d8; stroke:none;" d="M1326 851L1327 852L1326 851z"/>
<path style="fill:#030a14; stroke:none;" d="M738 852L739 853L738 852M808 852L809 853L808 852M884 852L885 853L884 852M907 852L908 853L907 852M1188 852L1189 853L1188 852M1258 852L1259 853L1258 852z"/>
<path style="fill:#2393d8; stroke:none;" d="M594 853L595 854L594 853z"/>
<path style="fill:#030a14; stroke:none;" d="M717 853L718 854L717 853M746 853L747 854L746 853M791 853L792 854L791 853M804 853L805 854L804 853M829 853L830 854L829 853M866 853L867 854L866 853M943 853L944 854L943 853M947 853L948 854L947 853M976 853L977 854L976 853M1004 853L1005 854L1004 853M1043 853L1044 854L1043 853M1167 853L1168 854L1167 853M1196 853L1197 854L1196 853M1241 853L1242 854L1241 853M1254 853L1255 854L1254 853M1279 853L1280 854L1279 853M623 854L624 855L623 854M727 854L728 855L727 854M801 854L802 855L801 854M841 854L842 855L841 854M848 854L849 855L848 854M870 854L871 855L870 854M932 854L933 855L932 854M953 854L954 855L953 854M961 854L962 855L961 854M986 854L987 855L986 854M1073 854L1074 855L1073 854M1177 854L1178 855L1177 854M1251 854L1252 855L1251 854M1291 854L1292 855L1291 854M1298 854L1299 855L1298 854M1316 854L1317 855L1316 854M641 855L642 856L641 855M646 855L647 856L646 855M696 855L697 856L696 855M818 855L819 856L818 855M832 855L833 856L832 855M859 855L860 856L859 855M901 855L902 856L901 855M995 855L996 856L995 855M1009 855L1010 856L1009 855M1018 855L1019 856L1018 855M1091 855L1092 856L1091 855M1096 855L1097 856L1096 855M1146 855L1147 856L1146 855M1268 855L1269 856L1268 855M1282 855L1283 856L1282 855M1309 855L1310 856L1309 855M660 856L661 857L660 856M811 856L812 857L811 856M893 856L894 857L893 856M1014 856L1015 857L1014 856M1110 856L1111 857L1110 856M1261 856L1262 857L1261 856z"/>
<path style="fill:#2393d8; stroke:none;" d="M1323 856L1322 858C1323.26 857.029 1323.39 857.306 1323 856z"/>
<path style="fill:#030a14; stroke:none;" d="M692 857L693 858L692 857M731 857L732 858L731 857M864 857L865 858L864 857M888 857L889 858L888 857M937 857L938 858L937 857M1035 857L1036 858L1035 857M1142 857L1143 858L1142 857M1181 857L1182 858L1181 857M644 858L645 859L644 858M671 858L672 859L671 858M676 858L677 859L676 858M721 858L722 859L721 858M875 858L876 859L875 858M1094 858L1095 859L1094 858M1121 858L1122 859L1121 858M1126 858L1127 859L1126 858M1171 858L1172 859L1171 858M1313 858L1314 859L1313 858M792 859L793 860L792 859M939 859L940 860L939 859M995 859L996 860L995 859M1242 859L1243 860L1242 859z"/>
<path style="fill:#2393d8; stroke:none;" d="M599 860L600 861L599 860z"/>
<path style="fill:#030a14; stroke:none;" d="M654 860L655 861L654 860M657 860L658 861L657 860M706 860L707 861L706 860M780 860L781 861L780 860M829 860L830 861L829 860M956 860L957 861L956 860M981 860L982 861L981 860M1000 860L1001 861L1000 860M1052 860L1053 861L1052 860M1104 860L1105 861L1104 860M1107 860L1108 861L1107 860M1156 860L1157 861L1156 860M1230 860L1231 861L1230 860M1279 860L1280 861L1279 860z"/>
<path style="fill:#2393d8; stroke:none;" d="M1320 860L1321 861L1320 860z"/>
<path style="fill:#030a14; stroke:none;" d="M728 861L729 862L728 861M758 861L759 862L758 861M767 861L768 862L767 861M846 861L847 862L846 861M963 861L964 862L963 861M1178 861L1179 862L1178 861M1208 861L1209 862L1208 861M1217 861L1218 862L1217 861M1296 861L1297 862L1296 861M626 862L627 863L626 862M648 862L649 863L648 862M698 862L699 863L698 862M750 862L751 863L750 862M795 862L796 863L795 862M800 862L801 863L800 862M837 862L838 863L837 862M851 862L852 863L851 862M892 862L893 863L892 862M910 862L911 863L910 862M926 862L927 863L926 862M932 862L933 863L932 862M944 862L945 863L944 862M990 862L991 863L990 862M1076 862L1077 863L1076 862M1098 862L1099 863L1098 862M1148 862L1149 863L1148 862M1200 862L1201 863L1200 862M1245 862L1246 863L1245 862M1250 862L1251 863L1250 862M1287 862L1288 863L1287 862M1301 862L1302 863L1301 862z"/>
<path style="fill:#2393d8; stroke:none;" d="M601 863C601.545 864.635 601.365 864.455 603 865C602.455 863.365 602.635 863.545 601 863z"/>
<path style="fill:#030a14; stroke:none;" d="M615 863L616 864L615 863M665 863L666 864L665 863M683 863L684 864L683 863M740 863L741 864L740 863M787 863L788 864L787 863M822 863L823 864L822 863M985 863L986 864L985 863M1047 863L1048 864L1047 863M1065 863L1066 864L1065 863M1115 863L1116 864L1115 863M1133 863L1134 864L1133 863M1190 863L1191 864L1190 863M1237 863L1238 864L1237 863M1272 863L1273 864L1272 863M619 864L620 865L619 864M678 864L679 865L678 864M760 864L761 865L760 864M773 864L774 865L773 864M806 864L807 865L806 864M859 864L860 865L859 864M917 864L918 865L917 864M968 864L969 865L968 864M1016 864L1017 865L1016 864M1060 864L1061 865L1060 864M1069 864L1070 865L1069 864M1128 864L1129 865L1128 864M1210 864L1211 865L1210 864M1223 864L1224 865L1223 864M1256 864L1257 865L1256 864M1309 864L1310 865L1309 864z"/>
<path style="fill:#2393d8; stroke:none;" d="M1317 864L1318 865L1317 864z"/>
<path style="fill:#030a14; stroke:none;" d="M640 865L641 866L640 865M659 865L660 866L659 865M671 865L672 866L671 865M976 865L977 866L976 865M1027 865L1028 866L1027 865M1056 865L1057 866L1056 865M1090 865L1091 866L1090 865M1109 865L1110 866L1109 865M1121 865L1122 866L1121 865M645 866L646 867L645 866M709 866L710 867L709 866M754 866L755 867L754 866M792 866L793 867L792 866M811 866L812 867L811 866M875 866L876 867L875 866M1032 866L1033 867L1032 866M1095 866L1096 867L1095 866M1159 866L1160 867L1159 866M1204 866L1205 867L1204 866M1242 866L1243 867L1242 866M1261 866L1262 867L1261 866M655 867L656 868L655 867M724 867L725 868L724 867M826 867L827 868L826 867M862 867L863 868L862 867M889 867L890 868L889 867M988 867L989 868L988 867M1012 867L1013 868L1012 867M1105 867L1106 868L1105 867M1174 867L1175 868L1174 867M1276 867L1277 868L1276 867z"/>
<path style="fill:#2393d8; stroke:none;" d="M605 868C606.103 869.457 606.543 869.897 608 871C606.897 869.543 606.457 869.103 605 868z"/>
<path style="fill:#030a14; stroke:none;" d="M664 868L665 869L664 868M734 868L735 869L734 868M748 868L749 869L748 868M815 868L816 869L815 868M921 868L922 869L921 868M984 868L985 869L984 868M1114 868L1115 869L1114 868M1184 868L1185 869L1184 868M1198 868L1199 869L1198 868M1265 868L1266 869L1265 868z"/>
<path style="fill:#2393d8; stroke:none;" d="M1314 868L1313 870C1314.26 869.029 1314.39 869.306 1314 868z"/>
<path style="fill:#030a14; stroke:none;" d="M649 869L650 870L649 869M667 869L668 870L667 869M727 869L728 870L727 869M743 869L744 870L743 869M787 869L788 870L787 869M883 869L884 870L883 869M1000 869L1001 870L1000 869M1099 869L1100 870L1099 869M1117 869L1118 870L1117 869M1177 869L1178 870L1177 869M1193 869L1194 870L1193 869M1237 869L1238 870L1237 869M808 870L809 871L808 870M870 870L871 871L870 870M943 870L944 871L943 870M962 870L963 871L962 870M1007 870L1008 871L1007 870M1258 870L1259 871L1258 870M639 871L640 872L639 871M678 871L679 872L678 871M695 871L696 872L695 871M705 871L706 872L705 871M764 871L765 872L764 871M865 871L866 872L865 871M1030 871L1031 872L1030 871M1089 871L1090 872L1089 871M1128 871L1129 872L1128 871M1145 871L1146 872L1145 871M1155 871L1156 872L1155 871M1214 871L1215 872L1214 871M619 872L620 873L619 872M700 872L701 873L700 872M719 872L720 873L719 872M756 872L757 873L756 872M795 872L796 873L795 872M798 872L799 873L798 872M804 872L805 873L804 872M911 872L912 873L911 872M917 872L918 873L917 872M933 872L934 873L933 872M949 872L950 873L949 872M970 872L971 873L970 872M994 872L995 873L994 872M1069 872L1070 873L1069 872M1150 872L1151 873L1150 872M1169 872L1170 873L1169 872M1206 872L1207 873L1206 872M1245 872L1246 873L1245 872M1248 872L1249 873L1248 872M1254 872L1255 873L1254 872M643 873L644 874L643 873M674 873L675 874L674 873M825 873L826 874L825 873M832 873L833 874L832 873M837 873L838 874L837 873M841 873L842 874L841 873M902 873L903 874L902 873M906 873L907 874L906 873M1093 873L1094 874L1093 873M1124 873L1125 874L1124 873M1275 873L1276 874L1275 873M1282 873L1283 874L1282 873M1287 873L1288 874L1287 873M1291 873L1292 874L1291 873M653 874L654 875L653 874M706 874L707 875L706 874M849 874L850 875L849 874M882 874L883 875L882 874M975 874L976 875L975 874M1057 874L1058 875L1057 874M1103 874L1104 875L1103 874M1156 874L1157 875L1156 874M770 875L771 876L770 875M794 875L795 876L794 875M921 875L922 876L921 875M955 875L956 876L955 875M981 875L982 876L981 875M1220 875L1221 876L1220 875M1244 875L1245 876L1244 875z"/>
<path style="fill:#2393d8; stroke:none;" d="M1308 875C1303.5 879.498 1298.67 883.792 1295 889C1299.54 885.804 1306.66 880.529 1308 875M612 876C615.28 880.656 619.344 884.72 624 888C620.72 883.344 616.656 879.28 612 876z"/>
<path style="fill:#030a14; stroke:none;" d="M625 876L626 877L625 876M871 876L872 877L871 876M888 876L889 877L888 876M990 876L991 877L990 876M1005 876L1006 877L1005 876M1012 876L1013 877L1012 876M1043 876L1044 877L1043 876M1075 876L1076 877L1075 876M674 877L675 878L674 877M691 877L692 878L691 877M728 877L729 878L728 877M892 877L893 878L892 877M924 877L925 878L924 877M938 877L939 878L938 877M1023 877L1024 878L1023 877M1036 877L1037 878L1036 877M1052 877L1053 878L1052 877M1071 877L1072 878L1071 877M1124 877L1125 878L1124 877M1141 877L1142 878L1141 877M1178 877L1179 878L1178 877M711 878L712 879L711 878M801 878L802 879L801 878M866 878L867 879L866 878M874 878L875 879L874 878M931 878L932 879L931 878M1063 878L1064 879L1063 878M1161 878L1162 879L1161 878M1251 878L1252 879L1251 878M684 879L685 880L684 879M754 879L755 880L754 879M763 879L764 880L763 879M782 879L783 880L782 879M896 879L897 880L896 879M912 879L913 880L912 879M1134 879L1135 880L1134 879M1204 879L1205 880L1204 879M1213 879L1214 880L1213 879M1232 879L1233 880L1232 879M698 880L699 881L698 880M758 880L759 881L758 880M926 880L927 881L926 880M994 880L995 881L994 880M1148 880L1149 881L1148 880M1208 880L1209 881L1208 880M660 881L661 882L660 881M779 881L780 882L779 881M815 881L816 882L815 881M843 881L844 882L843 881M871 881L872 882L871 881M884 881L885 882L884 881M943 881L944 882L943 881M946 881L947 882L946 881M966 881L967 882L966 881M1000 881L1001 882L1000 881M1057 881L1058 882L1057 881M1110 881L1111 882L1110 881M1229 881L1230 882L1229 881M1265 881L1266 882L1265 881M1292 881L1293 882L1292 881M720 882L721 883L720 882M875 882L876 883L875 882M934 882L935 883L934 882M959 882L960 883L959 882M1016 882L1017 883L1016 882M1070 882L1071 883L1070 882M1170 882L1171 883L1170 882M710 883L711 884L710 883M788 883L789 884L788 883M799 883L800 884L799 883M827 883L828 884L827 883M973 883L974 884L973 883M1160 883L1161 884L1160 883M1238 883L1239 884L1238 883M1249 883L1250 884L1249 883M1277 883L1278 884L1277 883M634 884L635 885L634 884M694 884L695 885L694 884M747 884L748 885L747 884M886 884L887 885L886 884M979 884L980 885L979 884M1061 884L1062 885L1061 884M1084 884L1085 885L1084 884M1144 884L1145 885L1144 884M1197 884L1198 885L1197 884M629 885L630 886L629 885M846 885L847 886L846 885M892 885L893 886L892 885M899 885L900 886L899 885M919 885L920 886L919 885M951 885L952 886L951 885M1076 885L1077 886L1076 885M1080 885L1081 886L1080 885M646 886L647 887L646 886M699 886L700 887L699 886M815 886L816 887L815 886M833 886L834 887L833 886M850 886L851 887L850 886M877 886L878 887L877 886M948 886L949 887L948 886M1044 886L1045 887L1044 886M1058 886L1059 887L1058 886M1096 886L1097 887L1096 886M1149 886L1150 887L1149 886M1265 886L1266 887L1265 886M1283 886L1284 887L1283 886M652 887L653 888L652 887M785 887L786 888L785 887M804 887L805 888L804 887M867 887L868 888L867 887M906 887L907 888L906 887M1053 887L1054 888L1053 887M1102 887L1103 888L1102 887M1235 887L1236 888L1235 887M1254 887L1255 888L1254 887M769 888L770 889L769 888M796 888L797 889L796 888M823 888L824 889L823 888M955 888L956 889L955 888M967 888L968 889L967 888M1069 888L1070 889L1069 888M1219 888L1220 889L1219 888M1246 888L1247 889L1246 888M1273 888L1274 889L1273 888M639 889L640 890L639 889M665 889L666 890L665 889M680 889L681 890L680 889M702 889L703 890L702 889M750 889L751 890L750 889M787 889L788 890L787 889M792 889L793 890L792 889M839 889L840 890L839 889M936 889L937 890L936 889M962 889L963 890L962 889M969 889L970 890L969 889M1064 889L1065 890L1064 889M1089 889L1090 890L1089 889M1115 889L1116 890L1115 889M1130 889L1131 890L1130 889M1152 889L1153 890L1152 889M1200 889L1201 890L1200 889M1237 889L1238 890L1237 889M1242 889L1243 890L1242 889M655 890L656 891L655 890M669 890L670 891L669 890M706 890L707 891L706 890M772 890L773 891L772 890M775 890L776 891L775 890M826 890L827 891L826 890M830 890L831 891L830 890M846 890L847 891L846 890M852 890L853 891L852 890M857 890L858 891L857 890M883 890L884 891L883 890M927 890L928 891L927 890M940 890L941 891L940 890M960 890L961 891L960 890M983 890L984 891L983 890M989 890L990 891L989 890M1014 890L1015 891L1014 890M1019 890L1020 891L1019 890M1038 890L1039 891L1038 890M1045 890L1046 891L1045 890M1075 890L1076 891L1075 890M1105 890L1106 891L1105 890M1119 890L1120 891L1119 890M1156 890L1157 891L1156 890M1222 890L1223 891L1222 890M1225 890L1226 891L1225 890M1276 890L1277 891L1276 890M1280 890L1281 891L1280 890M659 891L660 892L659 891M674 891L675 892L674 891M710 891L711 892L710 891M732 891L733 892L732 891M753 891L754 892L753 891M821 891L822 892L821 891M889 891L890 892L889 891M899 891L900 892L899 891M1002 891L1003 892L1002 891M1011 891L1012 892L1011 891M1024 891L1025 892L1024 891M1109 891L1110 892L1109 891M1124 891L1125 892L1124 891M1160 891L1161 892L1160 891M1182 891L1183 892L1182 891M1203 891L1204 892L1203 891M1271 891L1272 892L1271 891z"/>
<path style="fill:#2393d8; stroke:none;" d="M629 892C630.103 893.457 630.543 893.897 632 895C630.897 893.543 630.457 893.104 629 892z"/>
<path style="fill:#030a14; stroke:none;" d="M646 892L647 893L646 892M650 892L651 893L650 892M666 892L667 893L666 892M690 892L691 893L690 892M703 892L704 893L703 892M741 892L742 893L741 892M800 892L801 893L800 892M808 892L809 893L808 892M842 892L843 893L842 892M871 892L872 893L871 892M875 892L876 893L875 892M897 892L898 893L897 892M910 892L911 893L910 892M923 892L924 893L923 892M943 892L944 893L943 892M946 892L947 893L946 892M957 892L958 893L957 892M1035 892L1036 893L1035 892M1081 892L1082 893L1081 892M1096 892L1097 893L1096 892M1100 892L1101 893L1100 892M1116 892L1117 893L1116 892M1140 892L1141 893L1140 892M1153 892L1154 893L1153 892M1191 892L1192 893L1191 892M1250 892L1251 893L1250 892M1258 892L1259 893L1258 892M655 893L656 894L655 893M729 893L730 894L729 893M737 893L738 894L737 893M745 893L746 894L745 893M760 893L761 894L760 893M791 893L792 894L791 893M833 893L834 894L833 893M865 893L866 894L865 893M913 893L914 894L913 893M937 893L938 894L937 893M1006 893L1007 894L1006 893M1021 893L1022 894L1021 893M1031 893L1032 894L1031 893M1050 893L1051 894L1050 893M1085 893L1086 894L1085 893M1105 893L1106 894L1105 893M1179 893L1180 894L1179 893M1187 893L1188 894L1187 893M1195 893L1196 894L1195 893M1210 893L1211 894L1210 893M1241 893L1242 894L1241 893z"/>
<path style="fill:#2393d8; stroke:none;" d="M1289 893L1288 895C1289.26 894.029 1289.39 894.306 1289 893z"/>
<path style="fill:#030a14; stroke:none;" d="M768 894L769 895L768 894M777 894L778 895L777 894M786 894L787 895L786 894M803 894L804 895L803 894M891 894L892 895L891 894M931 894L932 895L931 894M979 894L980 895L979 894M993 894L994 895L993 894M1019 894L1020 895L1019 894M1043 894L1044 895L1043 894M1056 894L1057 895L1056 894M1063 894L1064 895L1063 894M1070 894L1071 895L1070 894M1218 894L1219 895L1218 894M1227 894L1228 895L1227 894M1236 894L1237 895L1236 894M1253 894L1254 895L1253 894M734 895L735 896L734 895M748 895L749 896L748 895M798 895L799 896L798 895M822 895L823 896L822 895M826 895L827 896L826 895M847 895L848 896L847 895M850 895L851 896L850 895M878 895L879 896L878 895M896 895L897 896L896 895M903 895L904 896L903 895M942 895L943 896L942 895M968 895L969 896L968 895M1000 895L1001 896L1000 895M1060 895L1061 896L1060 895M1075 895L1076 896L1075 895M1184 895L1185 896L1184 895M1198 895L1199 896L1198 895M1248 895L1249 896L1248 895M1272 895L1273 896L1272 895M1276 895L1277 896L1276 895M695 896L696 897L695 896M710 896L711 897L710 896M724 896L725 897L724 896M756 896L757 897L756 896M772 896L773 897L772 896M973 896L974 897L973 896M996 896L997 897L996 896M1013 896L1014 897L1013 896M1145 896L1146 897L1145 896M1160 896L1161 897L1160 896M1174 896L1175 897L1174 896M1206 896L1207 897L1206 896M1222 896L1223 897L1222 896z"/>
<path style="fill:#2393d8; stroke:none;" d="M635 897C635.545 898.635 635.365 898.455 637 899C636.455 897.365 636.635 897.545 635 897z"/>
<path style="fill:#030a14; stroke:none;" d="M658 897L659 898L658 897M663 897L664 898L663 897M680 897L681 898L680 897M688 897L689 898L688 897M702 897L703 898L702 897M706 897L707 898L706 897M715 897L716 898L715 897M782 897L783 898L782 897M819 897L820 898L819 897M841 897L842 898L841 897M868 897L869 898L868 897M891 897L892 898L891 897M910 897L911 898L910 897M935 897L936 898L935 897M990 897L991 898L990 897M1005 897L1006 898L1005 897M1023 897L1024 898L1023 897M1066 897L1067 898L1066 897M1090 897L1091 898L1090 897M1108 897L1109 898L1108 897M1113 897L1114 898L1113 897M1130 897L1131 898L1130 897M1138 897L1139 898L1138 897M1152 897L1153 898L1152 897M1156 897L1157 898L1156 897M1165 897L1166 898L1165 897M1232 897L1233 898L1232 897M1269 897L1270 898L1269 897z"/>
<path style="fill:#2393d8; stroke:none;" d="M1284 897L1283 899C1284.26 898.029 1284.39 898.306 1284 897z"/>
<path style="fill:#030a14; stroke:none;" d="M676 898L677 899L676 898M736 898L737 899L736 898M761 898L762 899L761 898M765 898L766 899L765 898M830 898L831 899L830 898M852 898L853 899L852 898M862 898L863 899L862 898M916 898L917 899L916 898M924 898L925 899L924 898M949 898L950 899L949 898M960 898L961 899L960 898M963 898L964 899L963 898M985 898L986 899L985 898M1048 898L1049 899L1048 898M1126 898L1127 899L1126 898M1186 898L1187 899L1186 898M1211 898L1212 899L1211 898M1215 898L1216 899L1215 898M727 899L728 900L727 899M750 899L751 900L750 899M776 899L777 900L776 899M793 899L794 900L793 899M825 899L826 900L825 899M836 899L837 900L836 899M865 899L866 900L865 899M928 899L929 900L928 899M1030 899L1031 900L1030 899M1035 899L1036 900L1035 899M1042 899L1043 900L1042 899M1075 899L1076 900L1075 899M1084 899L1085 900L1084 899M1092 899L1093 900L1092 899M1177 899L1178 900L1177 899M1200 899L1201 900L1200 899M1226 899L1227 900L1226 899M1243 899L1244 900L1243 899z"/>
<path style="fill:#2393d8; stroke:none;" d="M639 900L640 901L639 900z"/>
<path style="fill:#030a14; stroke:none;" d="M652 900L653 901L652 900M721 900L722 901L721 900M806 900L807 901L806 900M885 900L886 901L885 900M899 900L900 901L899 900M1012 900L1013 901L1012 900M1053 900L1054 901L1053 900M1060 900L1061 901L1060 900M1071 900L1072 901L1071 900M1102 900L1103 901L1102 900M1171 900L1172 901L1171 900M1256 900L1257 901L1256 900z"/>
<path style="fill:#2393d8; stroke:none;" d="M1280 900L1281 901L1280 900z"/>
<path style="fill:#030a14; stroke:none;" d="M655 901L656 902L655 901M711 901L712 902L711 901M741 901L742 902L741 901M796 901L797 902L796 901M813 901L814 902L813 901M847 901L848 902L847 901M856 901L857 902L856 901M875 901L876 902L875 901M937 901L938 902L937 901M971 901L972 902L971 901M981 901L982 902L981 901M1003 901L1004 902L1003 901M1016 901L1017 902L1016 901M1095 901L1096 902L1095 901M1105 901L1106 902L1105 901M1161 901L1162 902L1161 901M1191 901L1192 902L1191 901M1246 901L1247 902L1246 901M1263 901L1264 902L1263 901z"/>
<path style="fill:#2393d8; stroke:none;" d="M642 902L643 903L642 902z"/>
<path style="fill:#030a14; stroke:none;" d="M698 902L699 903L698 902M724 902L725 903L724 902M746 902L747 903L746 902M760 902L761 903L760 902M766 902L767 903L766 902M771 902L772 903L771 902M803 902L804 903L803 902M896 902L897 903L896 902M921 902L922 903L921 902M947 902L948 903L947 902M953 902L954 903L953 902M957 902L958 903L957 902M961 902L962 903L961 902M966 902L967 903L966 902M977 902L978 903L977 902M1020 902L1021 903L1020 902M1076 902L1077 903L1076 902M1087 902L1088 903L1087 902M1148 902L1149 903L1148 902M1174 902L1175 903L1174 902M1196 902L1197 903L1196 902M1210 902L1211 903L1210 902M1216 902L1217 903L1216 902M1221 902L1222 903L1221 902M1253 902L1254 903L1253 902M673 903L674 904L673 903M683 903L684 904L683 903M702 903L703 904L702 903M730 903L731 904L730 903M735 903L736 904L735 903M775 903L776 904L775 903M780 903L781 904L780 903M786 903L787 904L786 903M799 903L800 904L799 903M838 903L839 904L838 903M881 903L882 904L881 903M906 903L907 904L906 903M915 903L916 904L915 903M973 903L974 904L973 903M984 903L985 904L984 903M995 903L996 904L995 903M1012 903L1013 904L1012 903M1024 903L1025 904L1024 903M1054 903L1055 904L1054 903M1061 903L1062 904L1061 903M1123 903L1124 904L1123 903M1133 903L1134 904L1133 903M1152 903L1153 904L1152 903M1180 903L1181 904L1180 903M1185 903L1186 904L1185 903M1225 903L1226 904L1225 903M1230 903L1231 904L1230 903M1236 903L1237 904L1236 903M1249 903L1250 904L1249 903z"/>
<path style="fill:#2393d8; stroke:none;" d="M1276 903L1277 904L1276 903M645 904C645.545 905.635 645.365 905.455 647 906C646.455 904.365 646.635 904.545 645 904z"/>
<path style="fill:#030a14; stroke:none;" d="M660 904L661 905L660 904M687 904L688 905L687 904M755 904L756 905L755 904M822 904L823 905L822 904M826 904L827 905L826 904M876 904L877 905L876 904M890 904L891 905L890 904M924 904L925 905L924 904M943 904L944 905L943 904M998 904L999 905L998 904M1068 904L1069 905L1068 904M1082 904L1083 905L1082 904M1110 904L1111 905L1110 904M1137 904L1138 905L1137 904M1205 904L1206 905L1205 904M665 905L666 906L665 905M695 905L696 906L695 905M710 905L711 906L710 905M772 905L773 906L772 905M788 905L789 906L788 905M845 905L846 906L845 905M871 905L872 906L871 905M936 905L937 906L936 905M1008 905L1009 906L1008 905M1021 905L1022 906L1021 905M1028 905L1029 906L1028 905M1039 905L1040 906L1039 905M1115 905L1116 906L1115 905M1145 905L1146 906L1145 905M1160 905L1161 906L1160 905M1222 905L1223 906L1222 905M1238 905L1239 906L1238 905z"/>
<path style="fill:#2393d8; stroke:none;" d="M1273 905L1274 906L1273 905M648 906L649 907L648 906z"/>
<path style="fill:#030a14; stroke:none;" d="M670 906L671 907L670 906M735 906L736 907L735 906M745 906L746 907L745 906M796 906L797 907L796 906M858 906L859 907L858 906M866 906L867 907L866 906M884 906L885 907L884 906M919 906L920 907L919 906M961 906L962 907L961 906M980 906L981 907L980 906M1019 906L1020 907L1019 906M1034 906L1035 907L1034 906M1043 906L1044 907L1043 906M1051 906L1052 907L1051 906M1058 906L1059 907L1058 906M1120 906L1121 907L1120 906M1185 906L1186 907L1185 906M1195 906L1196 907L1195 906M1246 906L1247 907L1246 906z"/>
<path style="fill:#2393d8; stroke:none;" d="M1271 906L1272 907L1271 906M650 907L651 908L650 907z"/>
<path style="fill:#030a14; stroke:none;" d="M705 907L706 908L705 907M729 907L730 908L729 907M805 907L806 908L805 907M854 907L855 908L854 907M863 907L864 908L863 907M939 907L940 908L939 907M1055 907L1056 908L1055 907M1065 907L1066 908L1065 907M1076 907L1077 908L1076 907M1091 907L1092 908L1091 907M1109 907L1110 908L1109 907M1155 907L1156 908L1155 907M1179 907L1180 908L1179 907M1255 907L1256 908L1255 907M666 908L667 909L666 908M681 908L682 909L681 908M713 908L714 909L713 908M761 908L762 909L761 908M768 908L769 909L768 908M784 908L785 909L784 908M790 908L791 909L790 908M909 908L910 909L909 908M951 908L952 909L951 908M1010 908L1011 909L1010 908M1099 908L1100 909L1099 908M1116 908L1117 909L1116 908M1131 908L1132 909L1131 908M1163 908L1164 909L1163 908M1211 908L1212 909L1211 908M1218 908L1219 909L1218 908M1234 908L1235 909L1234 908M1240 908L1241 909L1240 908z"/>
<path style="fill:#2393d8; stroke:none;" d="M1268 908L1269 909L1268 908M653 909L654 910L653 909z"/>
<path style="fill:#030a14; stroke:none;" d="M694 909L695 910L694 909M716 909L717 910L716 909M723 909L724 910L723 909M734 909L735 910L734 909M749 909L750 910L749 909M813 909L814 910L813 909M820 909L821 910L820 909M873 909L874 910L873 909M881 909L882 910L881 909M896 909L897 910L896 909M905 909L906 910L905 909M913 909L914 910L913 909M998 909L999 910L998 909M1070 909L1071 910L1070 909M1080 909L1081 910L1080 909M1084 909L1085 910L1084 909M1096 909L1097 910L1096 909M1144 909L1145 910L1144 909M1166 909L1167 910L1166 909M1173 909L1174 910L1173 909M1184 909L1185 910L1184 909M1199 909L1200 910L1199 909z"/>
<path style="fill:#2393d8; stroke:none;" d="M1266 909L1267 910L1266 909M655 910L656 911L655 910z"/>
<path style="fill:#030a14; stroke:none;" d="M719 910L720 911L719 910M726 910L727 911L726 910M765 910L766 911L765 910M775 910L776 911L775 910M823 910L824 911L823 910M849 910L850 911L849 910M931 910L932 911L931 910M956 910L957 911L956 910M969 910L970 911L969 910M991 910L992 911L991 910M1047 910L1048 911L1047 910M1105 910L1106 911L1105 910M1169 910L1170 911L1169 910M1176 910L1177 911L1176 910M1215 910L1216 911L1215 910M1225 910L1226 911L1225 910M755 911L756 912L755 911M892 911L893 912L892 911M919 911L920 912L919 911M949 911L950 912L949 911M965 911L966 912L965 911M988 911L989 912L988 911M1022 911L1023 912L1022 911M1026 911L1027 912L1026 911M1086 911L1087 912L1086 911M1114 911L1115 912L1114 911M1205 911L1206 912L1205 911z"/>
<path style="fill:#2393d8; stroke:none;" d="M658 912L659 913L658 912z"/>
<path style="fill:#030a14; stroke:none;" d="M683 912L684 913L683 912M704 912L705 913L704 912M711 912L712 913L711 912M819 912L820 913L819 912M828 912L829 913L828 912M960 912L961 913L960 912M977 912L978 913L977 912M1015 912L1016 913L1015 912M1133 912L1134 913L1133 912M1154 912L1155 913L1154 912M1161 912L1162 913L1161 912z"/>
<path style="fill:#2393d8; stroke:none;" d="M1261 912L1262 913L1261 912M661 913L662 914L661 913z"/>
<path style="fill:#030a14; stroke:none;" d="M686 913L687 914L686 913M690 913L691 914L690 913M695 913L696 914L695 913M736 913L737 914L736 913M802 913L803 914L802 913M834 913L835 914L834 913M841 913L842 914L841 913M846 913L847 914L846 913M850 913L851 914L850 913M862 913L863 914L862 913M869 913L870 914L869 913M906 913L907 914L906 913M994 913L995 914L994 913M1008 913L1009 914L1008 913M1079 913L1080 914L1079 913M1091 913L1092 914L1091 913M1110 913L1111 914L1110 913M1136 913L1137 914L1136 913M1140 913L1141 914L1140 913M1145 913L1146 914L1145 913M1186 913L1187 914L1186 913z"/>
<path style="fill:#2393d8; stroke:none;" d="M1259 913L1260 914L1259 913M663 914L664 915L663 914z"/>
<path style="fill:#030a14; stroke:none;" d="M759 914L760 915L759 914M763 914L764 915L763 914M836 914L837 915L836 914M856 914L857 915L856 914M876 914L877 915L876 914M890 914L891 915L890 914M914 914L915 915L914 914M935 914L936 915L935 914M1002 914L1003 915L1002 914M1125 914L1126 915L1125 914M1209 914L1210 915L1209 914M1213 914L1214 915L1213 914z"/>
<path style="fill:#2393d8; stroke:none;" d="M1257 914L1258 915L1257 914M665 915L666 916L665 915z"/>
<path style="fill:#030a14; stroke:none;" d="M701 915L702 916L701 915M719 915L720 916L719 915M723 915L724 916L723 915M740 915L741 916L740 915M747 915L748 916L747 915M789 915L790 916L789 915M797 915L798 916L797 915M811 915L812 916L811 915M827 915L828 916L827 915M926 915L927 916L926 915M984 915L985 916L984 915M1018 915L1019 916L1018 915M1040 915L1041 916L1040 915M1048 915L1049 916L1048 915M1097 915L1098 916L1097 915M1106 915L1107 916L1106 915M1151 915L1152 916L1151 915M1169 915L1170 916L1169 915M1173 915L1174 916L1173 915M1190 915L1191 916L1190 915M1197 915L1198 916L1197 915z"/>
<path style="fill:#2393d8; stroke:none;" d="M667 916L668 917L667 916z"/>
<path style="fill:#030a14; stroke:none;" d="M733 916L734 917L733 916M898 916L899 917L898 916M902 916L903 917L902 916M973 916L974 917L973 916M999 916L1000 917L999 916M1061 916L1062 917L1061 916M1183 916L1184 917L1183 916z"/>
<path style="fill:#2393d8; stroke:none;" d="M1252 916L1253 917L1252 916M669 917L670 918L669 917z"/>
<path style="fill:#030a14; stroke:none;" d="M689 917L690 918L689 917M758 917L759 918L758 917M778 917L779 918L778 917M783 917L784 918L783 917M829 917L830 918L829 917M840 917L841 918L840 917M872 917L873 918L872 917M931 917L932 918L931 917M1023 917L1024 918L1023 917M1054 917L1055 918L1054 917M1058 917L1059 918L1058 917M1113 917L1114 918L1113 917M1121 917L1122 918L1121 917M1139 917L1140 918L1139 917M1208 917L1209 918L1208 917M1228 917L1229 918L1228 917M1237 917L1238 918L1237 917z"/>
<path style="fill:#2393d8; stroke:none;" d="M1250 917L1251 918L1250 917z"/>
<path style="fill:#030a14; stroke:none;" d="M696 918L697 919L696 918M771 918L772 919L771 918M794 918L795 919L794 918M804 918L805 919L804 918M819 918L820 919L819 918M823 918L824 919L823 918M852 918L853 919L852 918M882 918L883 919L882 918M939 918L940 919L939 918M954 918L955 919L954 918M961 918L962 919L961 918M969 918L970 919L969 918M978 918L979 919L978 918M996 918L997 919L996 918M1027 918L1028 919L1027 918M1066 918L1067 919L1066 918M1075 918L1076 919L1075 918M1089 918L1090 919L1089 918M1133 918L1134 919L1133 918M1145 918L1146 919L1145 918M1221 918L1222 919L1221 918M1233 918L1234 919L1233 918z"/>
<path style="fill:#2393d8; stroke:none;" d="M674 919L675 920L674 919z"/>
<path style="fill:#030a14; stroke:none;" d="M719 919L720 920L719 919M863 919L864 920L863 919M894 919L895 920L894 919M1012 919L1013 920L1012 919M1017 919L1018 920L1017 919M1033 919L1034 920L1033 919M1117 919L1118 920L1117 919M1149 919L1150 920L1149 919M1169 919L1170 920L1169 919z"/>
<path style="fill:#2393d8; stroke:none;" d="M1245 919L1246 920L1245 919M677 920L678 921L677 920z"/>
<path style="fill:#030a14; stroke:none;" d="M758 920L759 921L758 920M765 920L766 921L765 920M799 920L800 921L799 920M808 920L809 921L808 920M857 920L858 921L857 920M874 920L875 921L874 920M982 920L983 921L982 920M991 920L992 921L991 920M994 920L995 921L994 920M1007 920L1008 921L1007 920M1037 920L1038 921L1037 920M1092 920L1093 921L1092 920M1106 920L1107 921L1106 920M1122 920L1123 921L1122 920M1125 920L1126 921L1125 920M1210 920L1211 921L1210 920M1216 920L1217 921L1216 920z"/>
<path style="fill:#2393d8; stroke:none;" d="M680 921L681 922L680 921z"/>
<path style="fill:#030a14; stroke:none;" d="M706 921L707 922L706 921M734 921L735 922L734 921M742 921L743 922L742 921M826 921L827 922L826 921M836 921L837 922L836 921M868 921L869 922L868 921M878 921L879 922L878 921M908 921L909 922L908 921M986 921L987 922L986 921M1085 921L1086 922L1085 921M1098 921L1099 922L1098 921M1184 921L1185 922L1184 921M1192 921L1193 922L1192 921z"/>
<path style="fill:#2393d8; stroke:none;" d="M1239.67 921.333C1239.22 921.778 1240.28 921.722 1240.33 921.667C1240.78 921.222 1239.72 921.278 1239.67 921.333M683 922L684 923L683 922z"/>
<path style="fill:#030a14; stroke:none;" d="M790 922L791 923L790 922M844 922L845 923L844 922M887 922L888 923L887 922M897 922L898 923L897 922M911 922L912 923L911 922M945 922L946 923L945 922M950 922L951 923L950 922M959 922L960 923L959 922M1003 922L1004 923L1003 922M1047 922L1048 923L1047 922M1055 922L1056 923L1055 922M1135 922L1136 923L1135 922z"/>
<path style="fill:#2393d8; stroke:none;" d="M1236 922L1237 923L1236 922M686 923L687 924L686 923z"/>
<path style="fill:#030a14; stroke:none;" d="M727 923L728 924L727 923M759 923L760 924L759 923M774 923L775 924L774 923M784 923L785 924L784 923M847 923L848 924L847 923M921 923L922 924L921 923M927 923L928 924L927 923M954 923L955 924L954 923M1028 923L1029 924L1028 923M1044 923L1045 924L1044 923M1064 923L1065 924L1064 923M1072 923L1073 924L1072 923M1077 923L1078 924L1077 923M1083 923L1084 924L1083 923M1138 923L1139 924L1138 923M1159 923L1160 924L1159 923M1177 923L1178 924L1177 923M1208 923L1209 924L1208 923z"/>
<path style="fill:#2393d8; stroke:none;" d="M1233 923L1234 924L1233 923M690 924L691 925L690 924z"/>
<path style="fill:#030a14; stroke:none;" d="M715 924L716 925L715 924M724 924L725 925L724 924M743 924L744 925L743 924M753 924L754 925L753 924M788 924L789 925L788 924M812 924L813 925L812 924M859 924L860 925L859 924M934 924L935 925L934 924M939 924L940 925L939 924M966 924L967 925L966 924M975 924L976 925L975 924M998 924L999 925L998 924M1014 924L1015 925L1014 924M1051 924L1052 925L1051 924M1165 924L1166 925L1165 924M1173 924L1174 925L1173 924M1194 924L1195 925L1194 924z"/>
<path style="fill:#2393d8; stroke:none;" d="M1230 924L1231 925L1230 924M693.667 925.333C693.222 925.778 694.278 925.722 694.333 925.667C694.778 925.222 693.722 925.278 693.667 925.333z"/>
<path style="fill:#030a14; stroke:none;" d="M764 925L765 926L764 925M802 925L803 926L802 925M817 925L818 926L817 925M830 925L831 926L830 925M853 925L854 926L853 925M868 925L869 926L868 925M873 925L874 926L873 925M883 925L884 926L883 925M917 925L918 926L917 925M931 925L932 926L931 925M1098 925L1099 926L1098 925M1111 925L1112 926L1111 925M1119 925L1120 926L1119 925z"/>
<path style="fill:#2393d8; stroke:none;" d="M1226 925L1227 926L1226 925M697 926L698 927L697 926z"/>
<path style="fill:#030a14; stroke:none;" d="M843 926L844 927L843 926M889 926L890 927L889 926M912 926L913 927L912 926M1006 926L1007 927L1006 926z"/>
<path style="fill:#2393d8; stroke:none;" d="M1222 926L1223 927L1222 926M701.667 927.333C701.222 927.778 702.278 927.722 702.333 927.667C702.778 927.222 701.722 927.278 701.667 927.333z"/>
<path style="fill:#030a14; stroke:none;" d="M799 927L800 928L799 927M807 927L808 928L807 927M894 927L895 928L894 927M970 927L971 928L970 927M979 927L980 928L979 927M995 927L996 928L995 927M1010 927L1011 928L1010 927M1014 927L1015 928L1014 927M1033 927L1034 928L1033 927M1085 927L1086 928L1085 927M1149 927L1150 928L1149 927z"/>
<path style="fill:#2393d8; stroke:none;" d="M1217 927L1218 928L1217 927M707 928C708.248 928.685 708.549 928.749 710 929C708.752 928.315 708.452 928.251 707 928z"/>
<path style="fill:#030a14; stroke:none;" d="M760 928L761 929L760 928M824 928L825 929L824 928M877 928L878 929L877 928M887 928L888 929L887 928M1072 928L1073 929L1072 928M1082 928L1083 929L1082 928M1144 928L1145 929L1144 928z"/>
<path style="fill:#2393d8; stroke:none;" d="M1211 928C1212.25 928.685 1212.55 928.749 1214 929C1212.75 928.315 1212.45 928.251 1211 928M714 929C715.248 929.685 715.549 929.749 717 930C715.752 929.315 715.452 929.251 714 929z"/>
<path style="fill:#030a14; stroke:none;" d="M790 929L791 930L790 929M840 929L841 930L840 929M864 929L865 930L864 929M869 929L870 930L869 929M910 929L911 930L910 929M926 929L927 930L926 929z"/>
<path style="fill:#2393d8; stroke:none;" d="M1205.67 929.333C1205.22 929.778 1206.28 929.722 1206.33 929.667C1206.78 929.222 1205.72 929.278 1205.67 929.333M721 930C722.248 930.685 722.548 930.749 724 931C722.752 930.315 722.452 930.251 721 930M1197.67 930.333C1197.22 930.778 1198.28 930.722 1198.33 930.667C1198.78 930.222 1197.72 930.278 1197.67 930.333M730 931C731.248 931.685 731.548 931.749 733 932C731.752 931.315 731.452 931.251 730 931M1188 931C1189.25 931.685 1189.55 931.749 1191 932C1189.75 931.315 1189.45 931.251 1188 931M740 932L741 933L740 932M742 932C743.506 932.683 744.315 932.826 746 933C744.494 932.317 743.685 932.174 742 932M1173 932C1174.51 932.683 1175.31 932.826 1177 933C1175.49 932.317 1174.69 932.174 1173 932M766 933C768.89 934.213 771.874 933.998 775 934C772.11 932.787 769.126 933.002 766 933M776 933C777.248 933.685 777.549 933.749 779 934C777.752 933.315 777.452 933.251 776 933M780 933C781.248 933.685 781.549 933.749 783 934C781.752 933.315 781.452 933.251 780 933M1138 933L1139 934L1138 933M1140 933C1142.89 934.213 1145.87 933.998 1149 934C1146.11 932.787 1143.13 933.002 1140 933M1150.67 933.333C1150.22 933.778 1151.28 933.722 1151.33 933.667C1151.78 933.222 1150.72 933.278 1150.67 933.333M1153 933L1154 934L1153 933z"/>
</svg>
