<?xml version="1.0" standalone="yes"?>
<svg xmlns="http://www.w3.org/2000/svg" width="1920" height="1080">
<path style="fill:#010101; stroke:none;" d="M0 0L0 1080L1920 1080L1920 0L0 0M1123 377C1107.79 394.968 1089.19 410.621 1072.74 427.49C1067.17 433.203 1060.65 438.509 1056 445C1050.3 443.648 1045.82 439.531 1041 436.334C1035.01 432.362 1028.51 428.841 1022 425.782C1001 415.911 974.977 412.464 952 415.286C926.319 418.44 900.771 429.168 881 445.867C863.447 460.691 850.312 478.084 840.771 499C816.745 551.671 833.217 617.856 876.039 655.725C929.297 702.823 1023.12 705.071 1070.68 648C1082.4 633.932 1088.12 618.327 1093 601L968 601L968 510L1187 510C1188.61 522.489 1191.29 534.727 1191.77 547.385C1194 606.453 1175.78 669.548 1135.83 714C1120.45 731.111 1102.14 746.609 1082 757.83C984.38 812.208 857.69 788.39 786.69 701.996C774.878 687.624 764.401 671.876 756.489 655C719.343 575.767 728.275 478.813 781.909 409.089C800.449 384.987 823.909 364.973 850 349.453C870.005 337.553 893.304 328.741 916 323.665C958.179 314.232 1001.05 317.845 1042 330.434C1071.44 339.484 1100.36 356.147 1123 377z"/>
<path style="fill:#ea4032; stroke:none;" d="M837 509C840.004 497.517 845.89 486.935 852.309 477C881.789 431.371 939.324 405.65 993 416.449C1007.88 419.443 1021.74 425.023 1035 432.312C1039.52 434.794 1043.78 437.795 1048 440.74C1049.73 441.944 1051.74 443.867 1054 443.808C1056.44 443.744 1058.37 441.527 1060 439.98C1064.09 436.091 1068.01 431.993 1072 428C1083.9 416.101 1095.93 404.308 1107.58 392.17C1112.46 387.081 1118.95 382.438 1122 376C1104.67 364.161 1089.08 351.328 1070 342.109C1013.84 314.976 946.826 311.212 888 332.239C845.799 347.324 806.67 375.597 780.295 412C774.253 420.339 768.277 428.965 763.312 438C761.733 440.874 758.395 445.519 759.418 448.961C760.193 451.565 762.954 453.304 764.997 454.844L779 465.475C790.597 474.2 802.112 483.1 813.576 492C821.131 497.866 828.55 504.479 837 509z"/>
<path style="fill:#fbbd05; stroke:none;" d="M757 449C750.987 466.775 743.002 483.477 739.015 502C731.71 535.932 731.864 573.206 739.884 607C743.916 623.986 750.716 639.797 757 656C764.493 653.102 770.617 646.772 777 642.003C790.464 631.944 803.811 621.694 817 611.285L829.995 601.235C831.9 599.745 834.505 598.252 835.303 595.816C836.845 591.106 832.744 582.793 831.804 578C829.589 566.704 829.996 555.46 830 544C830.003 535.878 831.272 527.838 833.425 520C834.336 516.682 836.794 511.705 834.933 508.375C831.281 501.842 820.293 496.556 814.424 492C801.369 481.864 788.264 471.77 775.039 461.86C769.204 457.487 763.687 451.98 757 449z"/>
<path style="fill:#2965ef; stroke:none;" d="M968 510L968 600L1093 600C1091.53 618.053 1081.21 637.108 1069.32 650.424C1064.68 655.62 1059.45 660.309 1054 664.64C1052.07 666.175 1048.21 668.055 1048.21 670.95C1048.21 673.133 1050.53 674.548 1052.02 675.742C1055.64 678.643 1059.37 681.404 1063 684.286C1077.21 695.554 1091.64 706.571 1106 717.651C1109.75 720.548 1117.37 729.229 1122.58 726.508C1126.68 724.365 1130.01 719.834 1133 716.424C1139.34 709.207 1145.13 701.841 1150.66 694C1176.71 657.11 1191 609.07 1191 564C1191 550.767 1191.65 537.061 1189.2 524C1188.53 520.449 1188.35 513.419 1185.27 511.028C1181.99 508.476 1173.95 510 1170 510L1128 510L968 510z"/>
<path style="fill:#91b7c5; stroke:none;" d="M1186.33 510.667C1186.28 510.723 1186.22 511.777 1186.67 511.333C1186.72 511.278 1186.78 510.222 1186.33 510.667M1187.33 514.667C1187.28 514.723 1187.22 515.777 1187.67 515.333C1187.72 515.278 1187.78 514.222 1187.33 514.667M1188.33 519.667C1188.28 519.723 1188.22 520.777 1188.67 520.333C1188.72 520.278 1188.78 519.222 1188.33 519.667M1189.33 524.667C1189.28 524.723 1189.22 525.777 1189.67 525.333C1189.72 525.278 1189.78 524.222 1189.33 524.667M1190 533L1191 534L1190 533M1190.33 535.667C1190.28 535.723 1190.22 536.778 1190.67 536.333C1190.72 536.278 1190.78 535.222 1190.33 535.667M1190 538L1191 539L1190 538M1191.33 544.667C1191.28 544.723 1191.22 545.777 1191.67 545.333C1191.72 545.278 1191.78 544.222 1191.33 544.667M1191 547L1191 550C1191.7 548.446 1191.7 548.554 1191 547M1191 551L1191 554C1191.7 552.446 1191.7 552.554 1191 551M1191 555L1191 558C1191.7 556.446 1191.7 556.554 1191 555M1191 559L1191 562C1191.7 560.446 1191.7 560.554 1191 559M1191 563L1192 564L1191 563M1191 565L1192 566L1191 565M1190 574L1190 577C1190.7 575.446 1190.7 575.554 1190 574M1190 578L1191 579L1190 578M1189 588L1189 591C1189.7 589.446 1189.7 589.554 1189 588M1188 595L1188 598C1188.7 596.446 1188.7 596.554 1188 595z"/>
<path style="fill:#35a953; stroke:none;" d="M836 596C819.366 608.83 802.78 621.734 786 634.374C777.992 640.406 766.646 646.617 760.373 654.439C758.287 657.04 759.391 659.322 760.711 662C763.215 667.076 767.185 678.611 773 680C774.311 686.782 779.544 692.606 783.676 698.001C794.129 711.648 806.685 724.157 820 735C827.825 728.533 833.053 717.42 838.667 709C850.682 690.977 862.221 672.489 875 655C865.132 645.132 855.953 635.033 848.756 623C845.205 617.062 842.813 606.811 837 603C837.434 600.177 837.422 598.482 836 596z"/>
<path style="fill:#91b7c5; stroke:none;" d="M837 598L838 599L837 598M968 600C971.959 601.661 976.74 601 981 601L1006 601L1093 601C1089.04 599.339 1084.26 600 1080 600L1055 600L968 600z"/>
<path style="fill:#1f8b37; stroke:none;" d="M837.333 601.667C837.277 601.722 837.222 602.778 837.667 602.333C837.722 602.278 837.778 601.222 837.333 601.667z"/>
<path style="fill:#91b7c5; stroke:none;" d="M838.333 601.667C838.277 601.722 838.222 602.778 838.667 602.333C838.722 602.278 838.778 601.222 838.333 601.667M1187 601L1187 604C1187.7 602.446 1187.7 602.554 1187 601M1092.33 603.667C1092.28 603.722 1092.22 604.778 1092.67 604.333C1092.72 604.277 1092.78 603.222 1092.33 603.667M839 604L840 605L839 604M1186.33 606.667C1186.28 606.722 1186.22 607.778 1186.67 607.333C1186.72 607.277 1186.78 606.222 1186.33 606.667M1091.33 607.667C1091.28 607.722 1091.22 608.778 1091.67 608.333C1091.72 608.277 1091.78 607.222 1091.33 607.667M842 611L843 612L842 611M1090 611L1091 612L1090 611M1185.33 611.667C1185.28 611.722 1185.22 612.778 1185.67 612.333C1185.72 612.278 1185.78 611.222 1185.33 611.667M843 613L844 614L843 613M1089.33 614.667C1089.28 614.722 1089.22 615.778 1089.67 615.333C1089.72 615.277 1089.78 614.222 1089.33 614.667M844 615L845 616L844 615M1184.33 615.667C1184.28 615.722 1184.22 616.778 1184.67 616.333C1184.72 616.278 1184.78 615.222 1184.33 615.667M845 616L846 617L845 616M846 618L847 619L846 618M1088 618L1089 619L1088 618M1183.33 619.667C1183.28 619.722 1183.22 620.778 1183.67 620.333C1183.72 620.277 1183.78 619.222 1183.33 619.667M1087 620L1088 621L1087 620M847 621L848 622L847 621M1086 623L1087 624L1086 623M1182.33 623.667C1182.28 623.722 1182.22 624.778 1182.67 624.333C1182.72 624.277 1182.78 623.222 1182.33 623.667M849 624L850 625L849 624M1085 625L1086 626L1085 625M851 627L852 628L851 627M1084 627L1085 628L1084 627M1181.33 628.667C1181.28 628.722 1181.22 629.778 1181.67 629.333C1181.72 629.278 1181.78 628.222 1181.33 628.667M1083 629L1084 630L1083 629M853 630L854 631L853 630M1082 631L1083 632L1082 631M1081 632L1082 633L1081 632M1180 632L1181 633L1180 632M855 633L856 634L855 633M1179.33 634.667C1179.28 634.722 1179.22 635.778 1179.67 635.333C1179.72 635.277 1179.78 634.222 1179.33 634.667M1080 635L1081 636L1080 635M857 636L858 637L857 636M1079 636L1080 637L1079 636M858 637L859 638L858 637M1178.33 637.667C1178.28 637.722 1178.22 638.778 1178.67 638.333C1178.72 638.277 1178.78 637.223 1178.33 637.667M1078 638L1079 639L1078 638M1177 640L1178 641L1177 640M1075 642L1076 643L1075 642M863 643L864 644L863 643M1074 643L1075 644L1074 643M1176 643L1177 644L1176 643M1175.33 645.667C1175.28 645.722 1175.22 646.778 1175.67 646.333C1175.72 646.277 1175.78 645.223 1175.33 645.667M1072 646L1073 647L1072 646M1071 648L1072 649L1071 648M1174 648L1175 649L1174 648M1070 649L1071 650L1070 649M1173 650L1173 653C1173.7 651.446 1173.7 651.554 1173 650M871 651L872 652L871 651M1068 651L1069 652L1068 651M1067 652L1068 653L1067 652M1066 653L1067 654L1066 653M1065 654L1066 655L1065 654M1172 654L1173 655L1172 654M1064 655L1065 656L1064 655z"/>
<path style="fill:#1f8b37; stroke:none;" d="M873 656C861.628 676.426 846.971 695.543 834 715C830.891 719.664 827.703 724.285 824.672 729C823.43 730.932 821.485 733.371 822.306 735.826C823.953 740.756 833.884 745.29 838 748.112C854.693 759.557 873.625 768.877 893 774.72C954.11 793.148 1020.07 790.362 1077 759.886C1091.98 751.867 1110.52 741.701 1121 728C1102.76 716.642 1085.92 701.591 1069 688.338C1062.78 683.467 1054.75 674.217 1047 672.147C1043.83 671.301 1040.72 673.4 1038 674.753C1031.78 677.851 1025.66 681.046 1019 683.116C997.628 689.758 977.364 691.949 955 690.961C936.115 690.126 915.083 682.063 899 672.548C890.743 667.663 882.233 658.195 873 656z"/>
<path style="fill:#91b7c5; stroke:none;" d="M1171 656L1172 657L1171 656M877 657L878 658L877 657M1062 657L1063 658L1062 657M1061 658L1062 659L1061 658M1170 658L1171 659L1170 658M759 659L760 660L759 659M1060 659L1061 660L1060 659M1169 660L1170 661L1169 660M760 661L761 662L760 661M882 661L883 662L882 661M883 662L884 663L883 662M1168.33 662.667C1168.28 662.722 1168.22 663.778 1168.67 663.333C1168.72 663.278 1168.78 662.222 1168.33 662.667M761 663L762 664L761 663M1167.33 664.667C1167.28 664.722 1167.22 665.778 1167.67 665.333C1167.72 665.278 1167.78 664.222 1167.33 664.667M762 665L763 666L762 665M887 665L888 666L887 665M1053 665L1054 666L1053 665M889 666L890 667L889 666M1051 666L1052 667L1051 666M1166 666L1167 667L1166 666M763 667L764 668L763 667M890 667L891 668L890 667M892 668L893 669L892 668M1048 668L1049 669L1048 668M1165 668L1166 669L1165 668M764 669L765 670L764 669M1047 669L1048 670L1047 669M895 670L896 671L895 670M1046 670L1047 671L1046 670M765 671L766 672L765 671M1044 671L1045 672L1044 671M1164 671L1165 672L1164 671M898 672L899 673L898 672M1163 673L1164 674L1163 673M767 674L768 675L767 674M902 674L903 675L902 674M1162 674L1163 675L1162 674M768 675L769 676L768 675M904 675L905 676L904 675M906 676L907 677L906 676M1161 676L1162 677L1161 676M769 677L770 678L769 677M908 677L909 678L908 677M910 678L911 679L910 678M1160 678L1161 679L1160 678M912 679L913 680L912 679z"/>
<path style="fill:#1f8b37; stroke:none;" d="M772.333 680.667C772.278 680.722 772.222 681.778 772.667 681.333C772.722 681.278 772.778 680.222 772.333 680.667z"/>
<path style="fill:#91b7c5; stroke:none;" d="M914 680L915 681L914 680M1026 680L1027 681L1026 680M916 681L917 682L916 681M1158 681L1159 682L1158 681M772 682L773 683L772 682M919 682L920 683L919 682M1021 682L1022 683L1021 682M773 683L774 684L773 683M923 683L924 684L923 683M1017 683L1018 684L1017 683M926 684L927 685L926 684M1014 684L1015 685L1014 684M1156.33 684.667C1156.28 684.722 1156.22 685.778 1156.67 685.333C1156.72 685.277 1156.78 684.222 1156.33 684.667M929 685L930 686L929 685M1010.67 685.333C1010.22 685.777 1011.28 685.722 1011.33 685.667C1011.78 685.222 1010.72 685.278 1010.67 685.333M775 686L776 687L775 686M932 686L933 687L932 686M1006.67 686.333C1006.22 686.777 1007.28 686.722 1007.33 686.667C1007.78 686.222 1006.72 686.278 1006.67 686.333M936.667 687.333C936.223 687.777 937.278 687.722 937.333 687.667C937.778 687.222 936.722 687.278 936.667 687.333M1002.67 687.333C1002.22 687.777 1003.28 687.722 1003.33 687.667C1003.78 687.222 1002.72 687.278 1002.67 687.333M940.667 688.333C940.223 688.777 941.278 688.722 941.333 688.667C941.778 688.222 940.722 688.278 940.667 688.333M997.667 688.333C997.223 688.777 998.278 688.722 998.333 688.667C998.778 688.222 997.722 688.278 997.667 688.333z"/>
<path style="fill:#35a953; stroke:none;" d="M999.667 688.333C999.222 688.778 1000.28 688.722 1000.33 688.667C1000.78 688.222 999.722 688.278 999.667 688.333z"/>
<path style="fill:#91b7c5; stroke:none;" d="M1154 688L1155 689L1154 688M777 689L778 690L777 689M945.667 689.333C945.222 689.778 946.278 689.722 946.333 689.667C946.778 689.222 945.722 689.278 945.667 689.333M991.667 689.333C991.222 689.778 992.278 689.722 992.333 689.667C992.778 689.222 991.722 689.278 991.667 689.333z"/>
<path style="fill:#35a953; stroke:none;" d="M993 689C994.249 689.685 994.548 689.749 996 690C994.752 689.315 994.452 689.251 993 689M950.667 690.333C950.223 690.777 951.278 690.722 951.333 690.667C951.778 690.222 950.722 690.278 950.667 690.333z"/>
<path style="fill:#91b7c5; stroke:none;" d="M952 690C953.506 690.683 954.315 690.826 956 691C954.494 690.317 953.685 690.174 952 690M981 690L982 691L981 690M983 690C984.248 690.685 984.548 690.749 986 691C984.752 690.315 984.452 690.251 983 690z"/>
<path style="fill:#35a953; stroke:none;" d="M986 690C987.248 690.685 987.548 690.749 989 691C987.752 690.315 987.452 690.251 986 690z"/>
<path style="fill:#91b7c5; stroke:none;" d="M779 691L780 692L779 691M1152 691L1153 692L1152 691M1151 692L1152 693L1151 692M780 693L781 694L780 693M1149 695L1150 696L1149 695M782 696L783 697L782 696M1148.33 696.667C1148.28 696.722 1148.22 697.778 1148.67 697.333C1148.72 697.278 1148.78 696.222 1148.33 696.667M783 697L784 698L783 697M1145 701L1146 702L1145 701M1144 702L1145 703L1144 702M788 703L789 704L788 703M1143 703L1144 704L1143 703M790 706L791 707L790 706M1141 706L1142 707L1141 706M791 707L792 708L791 707M1140 707L1141 708L1140 707M795 711L796 712L795 711M1137 711L1138 712L1137 711M1136 712L1137 713L1136 712M1135 713L1136 714L1135 713M1134 714L1135 715L1134 714M1132 716L1133 717L1132 716M801 717L802 718L801 717M802 718L803 719L802 718M803 719L804 720L803 719M804 720L805 721L804 720M1127 722L1128 723L1127 722M1125 724L1126 725L1125 724M809 725L810 726L809 725M1123 725L1124 726L1123 725M813 729L814 730L813 729M1116 732L1117 733L1116 732M1110 737L1111 738L1110 737M824 738L825 739L824 738M1109 738L1110 739L1109 738M828 741L829 742L828 741M1105 741L1106 742L1105 741M830 742L831 743L830 742M831 743L832 744L831 743M1101 744L1102 745L1101 744M834 745L835 746L834 745M835 746L836 747L835 746M1098 746L1099 747L1098 746M837 747L838 748L837 747M838 748L839 749L838 748M1096 748L1097 749L1096 748M839 749L840 750L839 749M1092 750L1093 751L1092 750M843 751L844 752L843 751M845 752L846 753L845 752M1089 752L1090 753L1089 752M846 753L847 754L846 753M1088 753L1089 754L1088 753M1086 754L1087 755L1086 754M849 755L850 756L849 755M851 756L852 757L851 756M1083 756L1084 757L1083 756M853 757L854 758L853 757M855 758L856 759L855 758M1079.67 758.333C1079.22 758.778 1080.28 758.722 1080.33 758.667C1080.78 758.222 1079.72 758.278 1079.67 758.333M857 759L858 760L857 759M1077 759L1078 760L1077 759M859 760L860 761L859 760M1075 760L1076 761L1075 760M861 761L862 762L861 761M1072 762L1073 763L1072 762M864 763L865 764L864 763M1070 763L1071 764L1070 763M866 764L867 765L866 764M1068 764L1069 765L1068 764M1066 765L1067 766L1066 765M1064 766L1065 767L1064 766M1061 767L1062 768L1061 767M876 768L877 769L876 768M878 769L879 770L878 769M880 770L881 771L880 770M1054 770L1055 771L1054 770M883 771L884 772L883 771M1052 771L1053 772L1052 771M885 772L886 773L885 772M1049 772L1050 773L1049 772M888 773L889 774L888 773M1047 773L1048 774L1047 773z"/>
<path style="fill:#35a953; stroke:none;" d="M891.667 774.333C891.222 774.778 892.278 774.722 892.333 774.667C892.778 774.222 891.722 774.278 891.667 774.333z"/>
<path style="fill:#91b7c5; stroke:none;" d="M1044 774L1045 775L1044 774M895 775L896 776L895 775M1040 775L1041 776L1040 775M898 776L899 777L898 776M1037 776L1038 777L1037 776M901 777L902 778L901 777M1034 777L1035 778L1034 777M904.667 778.333C904.222 778.778 905.278 778.722 905.333 778.667C905.778 778.222 904.722 778.278 904.667 778.333z"/>
<path style="fill:#35a953; stroke:none;" d="M1029.67 778.333C1029.22 778.778 1030.28 778.722 1030.33 778.667C1030.78 778.222 1029.72 778.278 1029.67 778.333z"/>
<path style="fill:#91b7c5; stroke:none;" d="M908 779L909 780L908 779M1027 779L1028 780L1027 779M911.667 780.333C911.222 780.778 912.278 780.722 912.333 780.667C912.778 780.222 911.722 780.278 911.667 780.333M1023 780L1024 781L1023 780M915.667 781.333C915.223 781.777 916.278 781.722 916.333 781.667C916.778 781.222 915.722 781.278 915.667 781.333M1019.67 781.333C1019.22 781.778 1020.28 781.722 1020.33 781.667C1020.78 781.222 1019.72 781.278 1019.67 781.333M920 782L921 783L920 782z"/>
<path style="fill:#35a953; stroke:none;" d="M921.667 782.333C921.222 782.778 922.278 782.722 922.333 782.667C922.778 782.222 921.722 782.278 921.667 782.333M1013.67 782.333C1013.22 782.777 1014.28 782.722 1014.33 782.667C1014.78 782.222 1013.72 782.278 1013.67 782.333z"/>
<path style="fill:#91b7c5; stroke:none;" d="M1015 782L1016 783L1015 782M925 783C926.248 783.685 926.548 783.749 928 784C926.752 783.315 926.452 783.251 925 783z"/>
<path style="fill:#35a953; stroke:none;" d="M928 783C929.248 783.685 929.548 783.749 931 784C929.752 783.315 929.451 783.251 928 783M1005.67 783.333C1005.22 783.778 1006.28 783.722 1006.33 783.667C1006.78 783.222 1005.72 783.278 1005.67 783.333z"/>
<path style="fill:#91b7c5; stroke:none;" d="M1007 783C1008.51 783.683 1009.31 783.826 1011 784C1009.49 783.317 1008.69 783.174 1007 783M933.667 784.333C933.222 784.778 934.278 784.722 934.333 784.667C934.778 784.222 933.722 784.278 933.667 784.333z"/>
<path style="fill:#35a953; stroke:none;" d="M935 784C936.248 784.685 936.548 784.749 938 785C936.752 784.315 936.452 784.251 935 784M998 784C999.248 784.685 999.548 784.749 1001 785C999.752 784.315 999.452 784.251 998 784z"/>
<path style="fill:#91b7c5; stroke:none;" d="M1001.67 784.333C1001.22 784.777 1002.28 784.722 1002.33 784.667C1002.78 784.222 1001.72 784.278 1001.67 784.333M940.667 785.333C940.223 785.777 941.278 785.722 941.333 785.667C941.778 785.222 940.722 785.278 940.667 785.333z"/>
<path style="fill:#35a953; stroke:none;" d="M942 785C943.506 785.683 944.315 785.826 946 786C944.494 785.317 943.685 785.174 942 785M990 785C991.248 785.685 991.548 785.749 993 786C991.752 785.315 991.451 785.251 990 785z"/>
<path style="fill:#91b7c5; stroke:none;" d="M993 785C994.249 785.685 994.548 785.749 996 786C994.752 785.315 994.452 785.251 993 785M950 786C951.769 786.779 953.036 786.912 955 787C953.231 786.221 951.964 786.088 950 786z"/>
<path style="fill:#35a953; stroke:none;" d="M955 786C957.331 786.984 959.457 786.981 962 787C959.668 786.015 957.544 786.019 955 786M975 786C977.331 786.984 979.457 786.981 982 787C979.668 786.015 977.543 786.019 975 786z"/>
<path style="fill:#91b7c5; stroke:none;" d="M982 786C983.506 786.683 984.315 786.826 986 787C984.494 786.317 983.685 786.174 982 786z"/>
</svg>
