<?xml version="1.0" standalone="yes"?>
<svg xmlns="http://www.w3.org/2000/svg" width="1280" height="1280">
<path style="fill:#3d5b98; stroke:none;" d="M0 0L0 1280L653 1280C648.271 1268.84 651 1252.99 651 1241L651 1157L651 864L651 762C651 753.688 650.679 745.304 651.039 737C651.162 734.173 652.649 729.921 650.382 727.607C648.221 725.401 644.649 726.584 642 726.83C635.083 727.474 627.943 727 621 727C593.072 727 564.814 728.195 537 726L537 586L537 551C537 547.306 535.728 540.479 538.603 537.603C540.474 535.732 543.582 536.017 546 536.001L561 536L625 536C631.662 536 638.338 536.121 644.999 535.995C647.189 535.954 650.32 536.145 651.307 533.682C652.198 531.457 651.14 528.319 651.039 526C650.78 520.019 651 513.986 651 508L651 444C651 381.725 654.09 313.143 690.974 260C699.612 247.554 709.732 236.312 721 226.171C757.396 193.414 808.367 179.722 856 175.17C869.309 173.898 882.656 174.545 896 173.961C920.629 172.882 945.3 173 970 173L1031 173C1036.59 173 1048.46 170.756 1051.97 176.344C1053.9 179.415 1053 184.538 1053 188L1053 216L1053 321L1053 352C1053 355.979 1053.88 361.438 1049.85 363.821C1046.79 365.632 1042.4 365 1039 365L1017 365L959 365C949.682 365 939.169 363.651 930 365.375C917.337 367.757 901.215 371.641 892.704 382.09C883.379 393.541 883.351 406.171 881.714 420C878.898 443.793 880 468.049 880 492C880 504.765 878.006 519.367 880.148 531.941C880.983 536.84 886.141 535.998 890 536L918 536L1021 536C1029 536 1037.01 535.854 1045 536.005C1048.27 536.066 1051.74 536.309 1052.67 540.059C1054.02 545.51 1051.51 553.492 1050.73 559C1049.22 569.603 1048.95 580.354 1047.43 591C1043.06 621.501 1041.69 652.437 1037.72 683C1036.33 693.655 1036.07 704.352 1034.71 715C1034.22 718.884 1033.99 724.443 1029.87 726.258C1026.7 727.652 1022.38 727 1019 727L996 727L916 727C907.354 727 898.638 727.321 890 726.961C886.296 726.806 881.619 725.347 880.318 730.059C879.234 733.985 880 738.955 880 743L880 769L880 854L880 1143L880 1234C880 1248.65 882.398 1265.73 879 1280L1280 1280L1280 0L0 0M63 1L62 2L63 1M1218 1L1217 2L1218 1M60 2L59 3L60 2M1221 2L1220 3L1221 2M47 8L46 9L47 8M1234 8L1233 9L1234 8M34 17L33 18L34 17M1247 17L1246 18L1247 17M31 19L30 20L31 19M1250 19L1249 20L1250 19M17.6667 32.6666C17.7222 32.7222 17.7778 33.7778 17.3333 33.3334C17.2776 33.2776 17.2223 32.2223 17.6667 32.6666M1262.67 32.6666C1262.72 32.7223 1262.78 33.7778 1262.33 33.3334C1262.28 33.2777 1262.22 32.2222 1262.67 32.6666M15 36L14 37L15 36M1266 36L1265 37L1266 36M11 42L10 43L11 42M1270 42L1269 43L1270 42M9 45L8 46L9 45M1272 45L1271 46L1272 45M5 56C4.45496 57.6351 4.63523 57.455 3 58L3 56L5 56M1277 56L1277 58C1275.36 57.4548 1275.55 57.6354 1275 56L1277 56M2 61L1 62L2 61M1279 61L1278 62L1279 61M2 1218L1 1219L2 1218M1279 1218L1278 1219L1279 1218M4 1222L5 1224L3 1224C3 1222.15 2.7003 1222.65 4 1222M1277 1222L1277 1224L1275 1224C1275.55 1222.36 1275.36 1222.55 1277 1222M9 1234L8 1235L9 1234M1272 1234L1271 1235L1272 1234M11 1237L10 1238L11 1237M1270 1237L1269 1238L1270 1237M15 1243L14 1244L15 1243M1266 1243L1265 1244L1266 1243M17.6667 1246.67C17.7222 1246.72 17.7778 1247.78 17.3333 1247.33C17.2778 1247.28 17.2222 1246.22 17.6667 1246.67M1262.67 1246.67C1262.72 1246.72 1262.78 1247.78 1262.33 1247.33C1262.28 1247.28 1262.22 1246.22 1262.67 1246.67M31 1260L30 1261L31 1260M1250 1260L1249 1261L1250 1260M34 1262L33 1263L34 1262M1247 1262L1246 1263L1247 1262M48 1271L47 1272L48 1271M1233 1271L1232 1272L1233 1271M51 1273L50 1274L51 1273M1230 1273L1229 1274L1230 1273M60 1277L59 1278L60 1277M1221 1277L1220 1278L1221 1277M63 1278L62 1279L63 1278M1218 1278L1217 1279L1218 1278z"/>
</svg>
